<svg width="26" height="31" viewBox="0 0 26 31" fill="none" xmlns="http://www.w3.org/2000/svg">
<path d="M4.39269 31V25.9122H9.9726V31L7.18265 29.4027L4.39269 31Z" fill="#C13939"/>
<path d="M0 3.78626C0 1.69517 1.70091 0 3.79909 0H22.2009C24.2991 0 26 1.69517 26 3.78626V22.7176C26 24.8087 24.2991 26.5038 22.2009 26.5038H3.79909C1.70091 26.5038 0 24.8087 0 22.7176V3.78626Z" fill="#212121"/>
<path d="M0 3.78626C0 1.69517 1.70091 0 3.79909 0H22.2009C24.2991 0 26 1.69517 26 3.78626V22.7176C26 24.8087 24.2991 26.5038 22.2009 26.5038H3.79909C1.70091 26.5038 0 24.8087 0 22.7176V3.78626Z" fill="#212121"/>
<path d="M17.0604 4.41809V4.82393L16.5717 4.83553L14.1517 12.0943L12.6392 12.2914L11.0685 6.82994L9.3582 12.0943L7.84569 12.2914L5.51875 4.83553L5.03009 4.82393V4.41809H8.4507V4.82393L7.88059 4.83553L9.23022 10.726L10.3704 4.83553L9.80032 4.82393V4.41809H13.186V4.82393L12.6159 4.83553L14.0121 10.726L15.1057 4.83553L14.5124 4.82393V4.41809H17.0604Z" fill="#EBEBEB"/>
<path d="M17.5035 11.7812L18.0736 11.7696V4.83553L17.5035 4.82393V4.41809H20.5751V4.82393L20.005 4.83553V11.7696L20.5751 11.7812V12.187H17.5035V11.7812Z" fill="#EBEBEB"/>
<path d="M9.89276 20.5253L10.4629 20.5369V20.9427H7.3913V20.5369L7.9614 20.5253V13.5913L7.3913 13.5797V13.1738H10.4629V13.5797L9.89276 13.5913V20.5253ZM15.0935 20.5369V20.9427H11.4751V20.5369L12.0452 20.5253L10.0673 17.1279L12.592 13.5913L12.0219 13.5797V13.1738H14.791V13.5797L14.1627 13.5913L11.5798 16.0843L14.5234 20.5253L15.0935 20.5369Z" fill="#EBEBEB"/>
<path d="M15.5379 20.5369L16.108 20.5253V13.5913L15.5379 13.5797V13.1738H18.6094V13.5797L18.0393 13.5913V20.5253L18.6094 20.5369V20.9427H15.5379V20.5369Z" fill="#EBEBEB"/>
</svg>
